:SAMPLES-PER-SECOND 30
:FULLY-SPECIFIED
:DEGREES
352
root  69.3352 38.9306 -11.8861 -6.51888 -80.147 5.91453
RightUpLeg  -8.47716 -10.6178 -0.30235
RightLeg  27.1101 -3.13845 -1.98599
RightFoot  -16.7904 -0.227865 -2.38594
RightToes  0.000482159 0.542163 -0.142577
Spine  28.992 -3.19842 5.70355
Spine1  5.4127 -4.15986 9.3795
HEad  -17.5846 -2.1641 -4.60325
LeftShoulder1  10.3777 -17.5377 -42.8584
LeftArm  -4.872 -9.05333 -36.0838
LeftForeArm  24.975 -65.8558 -23.348
LeftHand  -0.25398 0.0180481 5.50724
RightShoulder  5.00118 9.47735 32.5851
RightArm  -8.54988 -10.3216 30.6664
RightForeArm  9.72185 76.5724 64.7393
RightHand  -0.42588 -3.15615 -21.5367
LeftUpLeg  -26.6656 8.65538 -0.897981
LeftLeg  59.6337 4.942 9.5984
LeftFoot  0.552824 -0.215981 2.00605
LeftToes  1.06247e-005 4.65854e-005 -8.18501e-006
353
root  67.7448 39.1081 -11.183 -10.1421 -81.0171 10.2423
RightUpLeg  -5.18866 -10.7691 -2.21371
RightLeg  24.6276 -2.35363 -1.30634
RightFoot  -17.3533 -0.236665 -2.28331
RightToes  0.000482159 0.542163 -0.142577
Spine  26.792 -2.53406 4.61332
Spine1  5.74679 -3.85858 8.97074
HEad  -17.2516 -1.47819 -4.6729
LeftShoulder1  10.2269 -17.3287 -42.6475
LeftArm  -4.69648 -9.40103 -35.8301
LeftForeArm  24.7621 -65.4463 -22.8535
LeftHand  -0.25398 0.0180481 5.50724
RightShoulder  4.86131 9.13259 32.5292
RightArm  -7.63508 -11.0363 31.4375
RightForeArm  8.82171 76.4291 63.355
RightHand  -0.465668 -2.95674 -21.4748
LeftUpLeg  -28.7971 8.98484 -0.0868215
LeftLeg  49.888 5.48459 7.41491
LeftFoot  -1.40951 -0.0659632 0.872677
LeftToes  1.06247e-005 4.65854e-005 -8.18501e-006
354
root  66.1018 39.1764 -10.4702 -9.21555 -82.2721 9.51284
RightUpLeg  -1.0824 -10.2807 -3.48054
RightLeg  21.5765 -1.36422 -0.327199
RightFoot  -17.9261 -0.178997 -1.00311
RightToes  0.000482159 0.542163 -0.142577
Spine  25.4152 -2.01887 4.34091
Spine1  5.77773 -3.29966 8.11343
HEad  -16.8112 -0.618094 -4.44694
LeftShoulder1  9.95345 -17.0308 -42.0727
LeftArm  -4.10161 -9.6507 -36.0787
LeftForeArm  24.6498 -65.1479 -22.499
LeftHand  -0.25398 0.0180481 5.50724
RightShoulder  4.75967 8.92809 32.3453
RightArm  -6.97318 -12.2643 31.9988
RightForeArm  9.05335 76.5293 64.4499
RightHand  -0.685599 -1.91774 -22.5643
LeftUpLeg  -29.0744 10.7068 1.22999
LeftLeg  37.2275 4.43762 4.07146
LeftFoot  -2.49283 -0.0318821 0.616486
LeftToes  1.06247e-005 4.65854e-005 -8.18501e-006
355
root  64.4307 39.1749 -9.74535 -10.3118 -83.517 10.9738
RightUpLeg  2.92262 -10.0483 -5.3025
RightLeg  18.4032 0.476567 0.849026
RightFoot  -18.0487 -0.0820724 0.690842
RightToes  0.000482159 0.542163 -0.142577
Spine  23.9326 -1.54675 3.44598
Spine1  6.07759 -2.83468 7.08739
HEad  -16.2937 0.313332 -3.7814
LeftShoulder1  9.60706 -16.7554 -41.0925
LeftArm  -3.42782 -9.60155 -36.847
LeftForeArm  24.7386 -64.9376 -22.2324
LeftHand  -0.25398 0.0180481 5.50724
RightShoulder  4.8051 9.14988 32.0324
RightArm  -6.76135 -13.937 32.5358
RightForeArm  10.018 76.6688 65.8799
RightHand  -0.657392 -2.0508 -22.3778
LeftUpLeg  -28.3075 13.3263 1.5879
LeftLeg  22.9746 2.30748 1.34528
LeftFoot  -2.98937 0.0258819 -0.135742
LeftToes  1.06247e-005 4.65854e-005 -8.18501e-006
356
root  62.688 39.0465 -8.93196 -17.6751 -84.726 18.7417
RightUpLeg  6.20525 -10.2818 -7.93029
RightLeg  16.742 2.66396 1.57368
RightFoot  -18.0416 -0.035384 1.48243
RightToes  0.000482159 0.542163 -0.142577
Spine  22.0026 -1.12222 2.19914
Spine1  6.73808 -2.40217 5.99404
HEad  -15.6299 1.04391 -2.58043
LeftShoulder1  9.3369 -16.5995 -40.1739
LeftArm  -2.65697 -9.32873 -37.7182
LeftForeArm  24.9079 -64.793 -22.0377
LeftHand  -0.25398 0.0180481 5.50724
RightShoulder  4.89401 9.46665 31.7882
RightArm  -6.72592 -15.8941 32.943
RightForeArm  11.2528 76.7835 67.0272
RightHand  -0.460459 -2.93731 -21.2109
LeftUpLeg  -26.3155 13.7463 2.36819
LeftLeg  10.0832 5.28521 -0.810844
LeftFoot  -3.7671 0.196025 -2.61422
LeftToes  1.06247e-005 4.65854e-005 -8.18501e-006
357
root  60.8551 38.802 -7.9932 -30.863 -85.5778 31.8414
RightUpLeg  9.29236 -10.2602 -10.9998
RightLeg  16.6814 4.92473 1.80481
RightFoot  -18.3549 0.0981506 3.53585
RightToes  0.000482159 0.542163 -0.142577
Spine  20.3174 -0.850556 1.12918
Spine1  7.38625 -1.96261 4.74469
HEad  -14.7634 1.58708 -1.24356
LeftShoulder1  9.18427 -16.4478 -39.7848
LeftArm  -1.43958 -9.19775 -38.5251
LeftForeArm  25.003 -64.5872 -21.7845
LeftHand  -0.25398 0.0180481 5.50724
RightShoulder  4.87283 9.47648 31.5951
RightArm  -6.52182 -18.0959 32.8325
RightForeArm  12.7808 76.9847 69.5911
RightHand  -0.530718 -2.62117 -21.5762
LeftUpLeg  -23.5424 7.35047 5.69843
LeftLeg  3.00261 17.4016 -4.17744
LeftFoot  -3.63233 0.30661 -4.19756
LeftToes  1.06247e-005 4.65854e-005 -8.18501e-006
358
root  58.9928 38.4787 -6.97307 -43.8572 -85.5833 44.1313
RightUpLeg  11.8928 -8.34017 -13.7871
RightLeg  18.7238 5.69831 1.81129
RightFoot  -18.238 0.43894 9.47987
RightToes  0.000482159 0.542163 -0.142577
Spine  19.5746 -0.780097 -0.168014
Spine1  7.90275 -1.809 3.84827
HEad  -13.5771 1.81484 -0.501928
LeftShoulder1  9.12361 -16.231 -39.9743
LeftArm  0.230292 -9.47112 -39.5057
LeftForeArm  25.1234 -64.2099 -21.3397
LeftHand  -0.25398 0.0180481 5.50724
RightShoulder  4.74752 9.26013 31.2473
RightArm  -6.29375 -20.2983 32.013
RightForeArm  14.4883 77.241 73.9229
RightHand  -0.881871 -1.12418 -23.6859
LeftUpLeg  -23.2204 8.58505 3.42647
LeftLeg  5.41786 17.9261 -3.86765
LeftFoot  -1.30387 0.34169 -3.86296
LeftToes  1.06247e-005 4.65854e-005 -8.18501e-006
